# xmcd
#
# Track frame offsets: 
#        150
#        19458
#        51948
#        63349
#        79530
#        100574
#        119803
#        138869
#        158220
#        186689
#        204515
#        224838
#        250202
#        295983
#        321632
#
# Disc length: 4434 seconds
#
# Revision: 0
# Processed by: cddbd v1.5.2PL0 Copyright (c) Steve Scherf et al.
# Submitted via: ExactAudioCopyFreeDBPlugin 1.0
#
DISCID=f111500f
DTITLE=Divers - LMD musiques traditionnelles CD1
DYEAR=2018
DGENRE=Ethnic
TTITLE0=N'doondo - Garbaare (Mali)
TTITLE1=Binkontina (Danse des grands initiés) [Part 1] (Burkina Faso)
TTITLE2=Yenniljo (Chant de mariage) (Sénégal)
TTITLE3=Irikpe wanreyou (Bénin)
TTITLE4=Chant destiné au maïdawa (Niger)
TTITLE5=Zavan (Mil mûr) (Cameroun)
TTITLE6=Chant du culte du Bwiti Dissumba (Gabon)
TTITLE7=Divito (Centrafrique)
TTITLE8=Viki (République Démocratique Du Congo)
TTITLE9=Cimdolobwa (Tanzanie)
TTITLE10=La femme abadonnée (Kenya)
TTITLE11=Chant à voix chuchotée et cithare inanga (Burundi)
TTITLE12=Muroro (Zimbabwe)
TTITLE13=Dimanche grand matin (La Réunion)
TTITLE14=Raha misy potraka (Si quelque'un tombe) (Madagascar)
EXTD=
EXTT0=
EXTT1=
EXTT2=
EXTT3=
EXTT4=
EXTT5=
EXTT6=
EXTT7=
EXTT8=
EXTT9=
EXTT10=
EXTT11=
EXTT12=
EXTT13=
EXTT14=
PLAYORDER=
